Coordinates
version=1
nRows=10
nColumns=22
inDegrees=yes

Units are S.I. units (second, meters, Newtons, ...)
If the header above contains a line with 'inDegrees', this indicates whether rotational values are in degrees (yes) or radians (no).

endheader
time	pelvis_tilt	pelvis_list	pelvis_rotation	pelvis_tx	pelvis_ty	pelvis_tz	hip_flexion_r	hip_adduction_r	hip_rotation_r	knee_angle_r	ankle_angle_r	subtalar_angle_r	hip_flexion_l	hip_adduction_l	hip_rotation_l	knee_angle_l	ankle_angle_l	subtalar_angle_l	lumbar_extension	lumbar_bending	lumbar_rotation
      0.01000000	      0.25371662	     -4.58705225	     -1.72263981	     -1.49048400	      1.01419276	     -0.57733660	     -0.75176050	      3.09591325	     -1.81086642	     -9.48846419	      9.00142080	      0.21506826	     -3.66600860	     -6.25979309	    -10.70907512	     -8.01497793	     11.78031549	     -1.34734279	     -4.18512864	      1.05881032	     -2.27055548
      0.02000000	      0.24514132	     -4.59299406	     -1.73408153	     -1.49033073	      1.01416597	     -0.57749695	     -0.75310637	      3.09125907	     -1.81291888	     -9.48435763	      9.00103413	      0.21660495	     -3.67029463	     -6.25386229	    -10.71044043	     -8.01310847	     11.78334850	     -1.34650192	     -4.18802822	      1.06298698	     -2.27306616
      0.03000000	      0.23110177	     -4.59550006	     -1.75153628	     -1.49011201	      1.01412900	     -0.57768344	     -0.75750348	      3.08054005	     -1.81234517	     -9.46984430	      9.00084394	      0.22322981	     -3.68393000	     -6.24033579	    -10.73173057	     -7.98941499	     11.80284114	     -1.34596088	     -4.17766125	      1.06212443	     -2.27110401
      0.04000000	      0.21843370	     -4.60245496	     -1.76330519	     -1.48994802	      1.01409043	     -0.57789373	     -0.75597554	      3.07431040	     -1.81324233	     -9.46398640	      9.00172622	      0.22406159	     -3.68406424	     -6.23261298	    -10.73414711	     -7.98777088	     11.80532939	     -1.34601798	     -4.18742618	      1.06420617	     -2.27135785
      0.05000000	      0.19284259	     -4.58835470	     -1.80288145	     -1.48974908	      1.01402962	     -0.57808807	     -0.74075583	      3.04350729	     -1.78239857	     -9.46050884	      9.01289380	      0.24037961	     -3.68145640	     -6.19878114	    -10.78537561	     -7.97616827	     11.83319278	     -1.35397161	     -4.17482605	      1.04060521	     -2.23731543
      0.06000000	      0.16992844	     -4.59276680	     -1.81794919	     -1.48955419	      1.01397365	     -0.57832478	     -0.73470162	      3.03211356	     -1.78872547	     -9.44524957	      9.01970511	      0.24327010	     -3.67742989	     -6.18608650	    -10.79732636	     -7.96555108	     11.84181349	     -1.35786135	     -4.16799499	      1.04099902	     -2.23503411
      0.07000000	      0.15486644	     -4.60077100	     -1.82648588	     -1.48940328	      1.01392775	     -0.57856713	     -0.73064853	      3.02522586	     -1.79036375	     -9.43901894	      9.02080481	      0.24351430	     -3.67394085	     -6.17820923	    -10.79824755	     -7.96340761	     11.84391993	     -1.35859290	     -4.18077985	      1.04326082	     -2.23578697
      0.08000000	      0.09938932	     -4.57968988	     -1.85327792	     -1.48925153	      1.01381822	     -0.57879979	     -0.67611923	      2.98640152	     -1.77369153	     -9.44503354	      9.03822873	      0.25635092	     -3.62530100	     -6.13850267	    -10.82156119	     -7.96873283	     11.87667036	     -1.38651595	     -4.13953887	      1.01320908	     -2.21891004
      0.09000000	      0.07289705	     -4.58634249	     -1.86354695	     -1.48907322	      1.01375639	     -0.57904321	     -0.66798484	      2.97766109	     -1.78109401	     -9.42563983	      9.04512311	      0.25904095	     -3.61704678	     -6.12866299	    -10.83010315	     -7.95561557	     11.88446836	     -1.39218800	     -4.13107349	      1.01455121	     -2.21658636
      0.10000000	      0.04465330	     -4.58706327	     -1.87770551	     -1.48891143	      1.01369383	     -0.57929082	     -0.65398102	      2.96179215	     -1.77695397	     -9.41149392	      9.04669396	      0.26443345	     -3.60431536	     -6.11158046	    -10.83753117	     -7.94737924	     11.89964148	     -1.40048745	     -4.12129782	      1.01019840	     -2.21169530
